<?xml version="1.0" standalone="no"?>
<!DOCTYPE svg PUBLIC "-//W3C//DTD SVG 20010904//EN"
 "http://www.w3.org/TR/2001/REC-SVG-20010904/DTD/svg10.dtd">
<svg version="1.0" xmlns="http://www.w3.org/2000/svg"
 width="257.000000pt" height="222.000000pt" viewBox="0 0 257.000000 222.000000"
 preserveAspectRatio="xMidYMid meet">

<g transform="translate(0.000000,222.000000) scale(0.100000,-0.100000)"
fill="#000000" stroke="none">
<path d="M0 1110 l0 -1110 1285 0 1285 0 0 734 0 734 -28 6 c-15 4 -50 0 -77
-9 -28 -8 -60 -15 -73 -15 -13 0 -37 -8 -55 -17 -18 -9 -35 -16 -39 -15 -5 1
-8 -2 -8 -8 0 -5 -7 -10 -15 -10 -11 0 -15 -11 -15 -36 0 -35 0 -35 -35 30
-19 37 -35 70 -35 76 0 16 119 101 183 130 57 25 91 37 170 54 22 5 27 12 27
37 l0 31 -52 -7 c-48 -7 -51 -6 -39 9 11 14 11 16 -3 16 -9 0 -16 -8 -16 -19
0 -11 -11 -23 -27 -29 -37 -14 -62 -12 -56 4 3 8 -6 14 -24 17 -25 4 -24 4 8
6 19 0 40 -4 46 -10 16 -16 44 -4 37 16 -3 8 -1 15 5 15 21 0 11 30 -13 39
-13 5 -26 17 -29 25 -4 9 -13 16 -21 16 -8 0 -28 14 -44 30 -21 21 -41 30 -64
31 -18 0 -27 3 -20 6 38 15 -18 63 -75 63 -40 0 -58 13 -32 22 8 3 6 14 -5 36
-14 26 -22 32 -50 32 -19 0 -37 -6 -39 -12 -3 -7 -8 2 -12 20 -4 18 -20 45
-34 61 -15 16 -32 40 -39 55 -6 14 -16 26 -22 26 -5 0 -10 7 -10 15 0 13 -119
15 -970 15 l-970 0 0 -1110z m1249 1049 c17 -6 31 -17 31 -23 0 -7 -32 -25
-70 -40 -80 -32 -206 -117 -263 -180 -100 -107 -233 -341 -258 -451 -12 -55
-30 -70 -47 -39 -15 27 -1 184 24 272 48 164 167 318 306 396 72 40 113 54
193 66 28 4 50 8 51 9 1 0 15 -4 33 -10z m550 -23 c-3 -3 -11 5 -18 17 -13 21
-12 21 5 5 10 -10 16 -20 13 -22z m-229 -108 c38 -40 70 -75 70 -79 0 -4 -15
-10 -34 -13 -45 -9 -93 -59 -109 -115 -11 -40 -21 -51 -87 -96 -41 -27 -97
-67 -123 -87 -47 -36 -50 -37 -115 -32 -80 6 -115 -11 -159 -77 -31 -47 -43
-137 -24 -190 10 -30 8 -35 -26 -78 -20 -25 -38 -48 -40 -50 -2 -3 -49 9 -104
24 l-102 29 6 71 c18 206 180 500 344 624 122 92 245 138 375 140 l58 1 70
-72z m146 -169 c19 -11 39 -29 44 -39 9 -16 4 -17 -58 -12 -56 4 -75 1 -110
-17 -54 -27 -56 -27 -48 11 16 82 91 107 172 57z m206 -89 c51 -19 56 -24 110
-118 134 -229 301 -647 374 -937 l17 -70 -26 -42 c-95 -151 -310 -323 -497
-400 -128 -52 -124 -53 -151 20 -76 204 -368 502 -709 722 -58 38 -109 71
-113 75 -10 9 66 187 88 209 15 15 17 14 27 -3 18 -32 90 -107 97 -101 3 4 4
55 2 115 -2 93 0 115 19 156 27 62 53 90 114 121 44 22 48 27 33 38 -9 7 -17
16 -17 21 0 11 173 134 188 134 5 0 12 -14 16 -32 l6 -31 44 45 c76 80 155 87
274 23 36 -19 68 -32 71 -30 3 3 -5 26 -17 50 -12 25 -22 48 -22 50 0 9 19 5
72 -15z m385 -76 c45 -20 59 -40 21 -28 -25 7 -78 42 -78 51 0 2 3 3 8 1 4 -2
26 -13 49 -24z m-1108 -150 c2 -2 -12 -20 -32 -41 -44 -44 -76 -106 -86 -170
l-8 -48 -18 40 c-25 57 -18 155 15 190 34 36 104 52 129 29z"/>
<path d="M1736 1640 c-84 -25 -151 -110 -164 -206 -6 -44 -12 -58 -22 -55 -76
21 -114 24 -158 13 -104 -27 -178 -112 -189 -216 -7 -69 15 -132 66 -189 146
-162 421 -58 421 159 0 43 1 46 23 39 119 -36 208 -17 275 60 66 74 83 142 58
226 -38 133 -177 208 -310 169z m135 -45 c210 -74 165 -375 -55 -375 -120 0
-196 77 -196 198 0 54 41 130 82 154 70 40 107 45 169 23z m-341 -266 c57 -24
109 -92 111 -143 3 -86 -9 -121 -57 -169 -85 -85 -225 -72 -294 28 -57 82 -49
176 20 245 62 62 137 75 220 39z"/>
<path d="M1716 1489 c-43 -34 -59 -74 -46 -114 27 -83 124 -113 180 -56 52 52
52 113 -2 163 -38 35 -92 38 -132 7z m32 -61 c21 -21 14 -47 -14 -54 -14 -4
-30 -2 -36 4 -6 6 -8 22 -4 36 7 28 33 35 54 14z"/>
<path d="M1414 1270 c-36 -14 -74 -68 -74 -106 0 -42 52 -102 90 -105 55 -3
73 2 101 30 23 24 29 38 29 73 0 52 -21 85 -66 104 -38 16 -50 16 -80 4z m14
-72 c30 -30 -13 -82 -45 -56 -24 20 -8 68 22 68 6 0 16 -5 23 -12z"/>
<path d="M1926 1116 c-55 -94 -170 -172 -303 -206 -28 -7 -43 -16 -43 -27 0
-28 70 -131 121 -177 59 -53 104 -70 171 -64 135 13 182 155 124 373 -13 49
-22 93 -19 98 6 10 -7 47 -17 47 -4 0 -20 -20 -34 -44z m38 -318 c-18 -61 -54
-102 -54 -63 0 10 -10 15 -26 15 -24 0 -25 2 -13 17 12 15 12 16 -6 9 -11 -5
-29 -11 -40 -14 -11 -3 -25 -13 -32 -21 -7 -9 -12 -11 -12 -6 -1 17 32 52 64
68 17 9 52 16 78 17 46 0 48 -1 41 -22z"/>
<path d="M2057 2074 c-10 -11 3 -24 24 -24 23 0 25 15 3 24 -19 7 -19 7 -27 0z"/>
</g>
</svg>
